<?xml version="1.0" encoding="UTF-8" standalone="no"?>
<!-- Created with Inkscape (http://www.inkscape.org/) -->

<svg
   xmlns:dc="http://purl.org/dc/elements/1.1/"
   xmlns:cc="http://creativecommons.org/ns#"
   xmlns:rdf="http://www.w3.org/1999/02/22-rdf-syntax-ns#"
   xmlns:svg="http://www.w3.org/2000/svg"
   xmlns="http://www.w3.org/2000/svg"
   xmlns:xlink="http://www.w3.org/1999/xlink"
   xmlns:sodipodi="http://sodipodi.sourceforge.net/DTD/sodipodi-0.dtd"
   xmlns:inkscape="http://www.inkscape.org/namespaces/inkscape"
   width="420"
   height="270"
   viewBox="0 0 420.00001 270"
   id="svg2"
   version="1.1"
   inkscape:version="0.91 r13725"
   sodipodi:docname="cv.svg"
   inkscape:export-filename="D:\UsbWebServer\root\img\math.png"
   inkscape:export-xdpi="90"
   inkscape:export-ydpi="90">
  <defs
     id="defs4">
    <pattern
       patternUnits="userSpaceOnUse"
       width="407.22821"
       height="305.42114"
       patternTransform="translate(221.0777,598.74213)"
       id="pattern3361">
      <image
         width="407.22821"
         height="305.42114"
         preserveAspectRatio="none"
         xlink:href="file:///C:/Users/ibendali/Desktop/elaphant/52858_Learning_Arabic_calligraphy.jpg"
         id="image3344"
         x="0"
         y="0"
         sodipodi:absref="C:\Users\ibendali\Desktop\elaphant\52858_Learning_Arabic_calligraphy.jpg" />
    </pattern>
    <pattern
       patternUnits="userSpaceOnUse"
       width="405"
       height="281.40515"
       patternTransform="translate(222.14285,631.1405)"
       id="pattern4895">
      <image
         width="405"
         height="281.40515"
         preserveAspectRatio="none"
         xlink:href="file:///C:/Users/ibendali/Desktop/elaphant/098872613733.jpg"
         id="image4892"
         x="0"
         y="0"
         sodipodi:absref="C:\Users\ibendali\Desktop\elaphant\098872613733.jpg" />
    </pattern>
    <pattern
       patternUnits="userSpaceOnUse"
       width="464.3624"
       height="257.97913"
       patternTransform="translate(222.22346,627.6142)"
       id="pattern4911">
      <image
         width="464.3624"
         height="257.97913"
         preserveAspectRatio="none"
         xlink:href="file:///C:/Users/ibendali/Desktop/elaphant/1425412544-physique-realite-2.jpg"
         id="image4908"
         x="0"
         y="0"
         sodipodi:absref="C:\Users\ibendali\Desktop\elaphant\1425412544-physique-realite-2.jpg" />
    </pattern>
    <pattern
       patternUnits="userSpaceOnUse"
       width="545.95532"
       height="259.97873"
       patternTransform="translate(-41.147644,786.50726)"
       id="pattern4929">
      <image
         width="545.95532"
         height="259.97873"
         preserveAspectRatio="none"
         xlink:href="file:///C:/Users/ibendali/Desktop/elaphant/381585.jpg"
         id="image4926"
         x="0"
         y="0"
         sodipodi:absref="C:\Users\ibendali\Desktop\elaphant\381585.jpg" />
    </pattern>
    <pattern
       patternUnits="userSpaceOnUse"
       width="491.62"
       height="276.40128"
       patternTransform="translate(1.8914257,770.82214)"
       id="pattern4989">
      <image
         width="491.62"
         height="276.40128"
         preserveAspectRatio="none"
         xlink:href="file:///C:/Users/ibendali/Desktop/elaphant/c3a1671803d17505dd4d6a485fbb6757_large.jpeg"
         id="image4986"
         x="0"
         y="0"
         sodipodi:absref="C:\Users\ibendali\Desktop\elaphant\c3a1671803d17505dd4d6a485fbb6757_large.jpeg" />
    </pattern>
    <pattern
       patternUnits="userSpaceOnUse"
       width="525.87048"
       height="295.65778"
       patternTransform="translate(7.4156976,749.35596)"
       id="pattern5024">
      <image
         width="525.87048"
         height="295.65778"
         preserveAspectRatio="none"
         xlink:href="file:///C:/Users/ibendali/Desktop/elaphant/c3a1671803d17505dd4d6a485fbb6757_large.jpeg"
         id="image5022"
         x="0"
         y="0"
         sodipodi:absref="C:\Users\ibendali\Desktop\elaphant\c3a1671803d17505dd4d6a485fbb6757_large.jpeg" />
    </pattern>
    <pattern
       patternUnits="userSpaceOnUse"
       width="465.74905"
       height="261.98383"
       patternTransform="translate(-18.715139,786.84277)"
       id="pattern5029">
      <image
         width="465.74905"
         height="261.98383"
         preserveAspectRatio="none"
         xlink:href="file:///C:/Users/ibendali/Desktop/elaphant/france_flag_by_think0-d563k6e.jpg"
         id="image4964"
         x="0"
         y="0"
         sodipodi:absref="C:\Users\ibendali\Desktop\elaphant\france_flag_by_think0-d563k6e.jpg" />
    </pattern>
    <pattern
       patternUnits="userSpaceOnUse"
       width="411.23682"
       height="273.89017"
       patternTransform="translate(6.4657083,786.61816)"
       id="pattern5034">
      <image
         width="411.23682"
         height="273.89017"
         preserveAspectRatio="none"
         xlink:href="file:///C:/Users/ibendali/Desktop/elaphant/photo-anglais.jpg"
         id="image4953"
         x="0"
         y="0"
         sodipodi:absref="C:\Users\ibendali\Desktop\elaphant\photo-anglais.jpg" />
    </pattern>
    <pattern
       patternUnits="userSpaceOnUse"
       width="403.18057"
       height="268.78705"
       patternTransform="translate(8.8844604,778.9411)"
       id="pattern5050">
      <image
         sodipodi:absref="D:\UsbWebServer\root\img\math.jpg"
         xlink:href="math.jpg"
         width="403.18057"
         height="268.78705"
         preserveAspectRatio="none"
         id="image5047"
         x="0"
         y="0" />
    </pattern>
    <pattern
       patternUnits="userSpaceOnUse"
       width="405.4404"
       height="270.02332"
       patternTransform="translate(6.8786407,782.55823)"
       id="pattern5077">
      <image
         width="405.4404"
         height="270.02332"
         preserveAspectRatio="none"
         xlink:href="file:///C:/Users/ibendali/Desktop/elaphant/tumblr_n2w0ywJGdo1szth46o1_500.jpg"
         id="image5074"
         x="0"
         y="0"
         sodipodi:absref="C:\Users\ibendali\Desktop\elaphant\tumblr_n2w0ywJGdo1szth46o1_500.jpg" />
    </pattern>
    <pattern
       patternUnits="userSpaceOnUse"
       width="436.40622"
       height="292.10123"
       patternTransform="translate(-14.682292,758.73499)"
       id="pattern5093">
      <image
         width="436.40622"
         height="292.10123"
         preserveAspectRatio="none"
         xlink:href="file:///C:/Users/ibendali/Desktop/elaphant/71qP6t9Tw2L._SL1500_.jpg"
         id="image5090"
         x="0"
         y="0"
         sodipodi:absref="C:\Users\ibendali\Desktop\elaphant\71qP6t9Tw2L._SL1500_.jpg" />
    </pattern>
    <pattern
       patternUnits="userSpaceOnUse"
       width="413.84976"
       height="275.46875"
       patternTransform="translate(5.4616661,771.24957)"
       id="pattern5111">
      <image
         width="413.84976"
         height="275.46875"
         preserveAspectRatio="none"
         xlink:href="file:///C:/Users/ibendali/Desktop/elaphant/experimentgirl.jpg"
         id="image5108"
         x="0"
         y="0"
         sodipodi:absref="C:\Users\ibendali\Desktop\elaphant\experimentgirl.jpg" />
    </pattern>
    <pattern
       patternUnits="userSpaceOnUse"
       width="559.31195"
       height="273.34793"
       patternTransform="translate(-12.660339,773.16052)"
       id="pattern5155">
      <image
         transform="scale(-1,1)"
         width="559.31195"
         height="273.34793"
         preserveAspectRatio="none"
         xlink:href="file:///C:/Users/ibendali/Desktop/elaphant/library.jpg"
         id="image5152"
         x="-559.31195"
         y="0"
         sodipodi:absref="C:\Users\ibendali\Desktop\elaphant\library.jpg" />
    </pattern>
    <pattern
       patternUnits="userSpaceOnUse"
       width="412.24127"
       height="275.49539"
       patternTransform="translate(2.6968374,773.69257)"
       id="pattern5171">
      <image
         width="412.24127"
         height="275.49539"
         preserveAspectRatio="none"
         xlink:href="file:///C:/Users/ibendali/Desktop/elaphant/adu6_gd-6.jpg"
         id="image5168"
         x="0"
         y="0"
         sodipodi:absref="C:\Users\ibendali\Desktop\elaphant\adu6_gd-6.jpg" />
    </pattern>
    <filter
       inkscape:collect="always"
       style="color-interpolation-filters:sRGB"
       id="filter4357"
       x="-0.097986423"
       width="1.1959728"
       y="-0.38240664"
       height="1.7648133">
      <feGaussianBlur
         inkscape:collect="always"
         stdDeviation="11.622198"
         id="feGaussianBlur4359" />
    </filter>
    <pattern
       patternUnits="userSpaceOnUse"
       width="540"
       height="263.70001"
       patternTransform="translate(-125.46875,787.69965)"
       id="pattern3405">
      <image
         width="540"
         height="263.70001"
         preserveAspectRatio="none"
         xlink:href="file:///C:/Users/ibendali/Desktop/elaphant/FormationProfessionnelle_Fo.jpg"
         id="image3402"
         x="0"
         y="0"
         sodipodi:absref="C:\Users\ibendali\Desktop\elaphant\FormationProfessionnelle_Fo.jpg" />
    </pattern>
    <pattern
       patternUnits="userSpaceOnUse"
       width="459.70529"
       height="258.58423"
       patternTransform="translate(-10.07755,788.97778)"
       id="pattern4937">
      <image
         width="459.70529"
         height="258.58423"
         preserveAspectRatio="none"
         xlink:href="file:///C:/Users/ibendali/Desktop/elaphant/motherboard-wallpaper-1600x900.jpg"
         id="image4934"
         x="0"
         y="0"
         sodipodi:absref="C:\Users\ibendali\Desktop\elaphant\motherboard-wallpaper-1600x900.jpg" />
    </pattern>
    <pattern
       patternUnits="userSpaceOnUse"
       width="567.78351"
       height="256.51929"
       patternTransform="translate(-135.40001,790.03009)"
       id="pattern4953">
      <image
         width="567.78351"
         height="256.51929"
         preserveAspectRatio="none"
         xlink:href="file:///C:/Users/ibendali/Desktop/elaphant/mathematics.jpg"
         id="image4950"
         x="0"
         y="0"
         sodipodi:absref="C:\Users\ibendali\Desktop\elaphant\mathematics.jpg" />
    </pattern>
    <pattern
       patternUnits="userSpaceOnUse"
       width="458.93484"
       height="257.87769"
       patternTransform="translate(-17.79418,790.28839)"
       id="pattern4971">
      <image
         width="458.93484"
         height="257.87769"
         preserveAspectRatio="none"
         xlink:href="file:///C:/Users/ibendali/Desktop/elaphant/%D8%A7%D9%84%D9%85%D8%AD%D8%A7%D9%83%D8%A7%D8%A9-%D8%A7%D9%84%D8%AA%D9%81%D8%A7%D8%B9%D9%84%D9%8A%D8%A9.jpg"
         id="image4966"
         x="0"
         y="0"
         sodipodi:absref="C:\Users\ibendali\Desktop\elaphant\المحاكاة-التفاعلية.jpg" />
    </pattern>
  </defs>
  <sodipodi:namedview
     id="base"
     pagecolor="#ffffff"
     bordercolor="#666666"
     borderopacity="1.0"
     inkscape:pageopacity="0.0"
     inkscape:pageshadow="2"
     inkscape:zoom="0.90509668"
     inkscape:cx="157.25564"
     inkscape:cy="33.700894"
     inkscape:document-units="px"
     inkscape:current-layer="layer1"
     showgrid="false"
     units="px"
     inkscape:window-width="1920"
     inkscape:window-height="1017"
     inkscape:window-x="-8"
     inkscape:window-y="-8"
     inkscape:window-maximized="1" />
  <metadata
     id="metadata7">
    <rdf:RDF>
      <cc:Work
         rdf:about="">
        <dc:format>image/svg+xml</dc:format>
        <dc:type
           rdf:resource="http://purl.org/dc/dcmitype/StillImage" />
        <dc:title />
      </cc:Work>
    </rdf:RDF>
  </metadata>
  <g
     inkscape:label="Calque 1"
     inkscape:groupmode="layer"
     id="layer1"
     transform="translate(0,-782.36214)">
    <path
       style="fill:#e6e6e6;fill-rule:evenodd;stroke:none;stroke-width:1px;stroke-linecap:butt;stroke-linejoin:miter;stroke-opacity:1"
       d="m -35.9375,432.83089 -37.5,60.15625 -67.1875,-49.21875 0,-106.25 z"
       id="path5182"
       inkscape:connector-curvature="0" />
    <rect
       style="fill:#ff0000;stroke:none"
       id="rect5129"
       width="1395.3125"
       height="365.625"
       x="-1612.8127"
       y="-416.67825"
       inkscape:export-xdpi="90"
       inkscape:export-ydpi="90" />
    <path
       style="fill:url(#pattern4971);fill-opacity:1.0;fill-rule:evenodd;stroke:none;stroke-width:1px;stroke-linecap:butt;stroke-linejoin:miter;stroke-opacity:1"
       d="m 10,792.36212 400,0 0,213.99998 -400,36 z"
       id="rect3358"
       inkscape:connector-curvature="0"
       sodipodi:nodetypes="ccccc"
       inkscape:export-xdpi="90"
       inkscape:export-ydpi="90"
       clip-path="none" />
    <image
       sodipodi:absref="C:\Users\ibendali\Desktop\elaphant\arcus-Enterprise-Solutions-Architecture-header.png"
       y="-841.67828"
       x="-1620.219"
       id="image5126"
       xlink:href="file:///C:/Users/ibendali/Desktop/elaphant/arcus-Enterprise-Solutions-Architecture-header.png"
       preserveAspectRatio="none"
       height="800"
       width="1407" />
    <path
       style="fill:#ff0000;fill-rule:evenodd;stroke:none;stroke-width:1px;stroke-linecap:butt;stroke-linejoin:miter;stroke-opacity:1;opacity:1;fill-opacity:0.64406782"
       d="M 609.8796,631.41263 278.4233,718.69613 -139.21165,600.47671 Z"
       id="path5176"
       inkscape:connector-curvature="0" />
    <path
       style="fill:#ff0000;fill-rule:evenodd;stroke:none;stroke-width:1px;stroke-linecap:butt;stroke-linejoin:miter;stroke-opacity:1;opacity:1;fill-opacity:0.64406782"
       d="m -141.42136,444.69225 1.10486,154.67961 418.60168,119.18616 z"
       id="path5178"
       inkscape:connector-curvature="0"
       sodipodi:nodetypes="cccc" />
    <path
       style="fill:#ff0000;fill-rule:evenodd;stroke:none;stroke-width:1px;stroke-linecap:butt;stroke-linejoin:miter;stroke-opacity:1"
       d="m -139.84375,601.58089 104.6875,-168.75 -105.46875,11.71875 z"
       id="path5180"
       inkscape:connector-curvature="0" />
    <image
       sodipodi:absref="C:\Users\ibendali\Desktop\elaphant\Chalkboard1.jpg"
       y="-649.30334"
       x="1004.6503"
       id="image5192"
       xlink:href="file:///C:/Users/ibendali/Desktop/elaphant/Chalkboard1.jpg"
       preserveAspectRatio="none"
       height="1629"
       width="2444.3999" />
    <image
       sodipodi:absref="C:\Users\ibendali\Desktop\elaphant\20150428192635709.png"
       y="-1586.3981"
       x="649.69897"
       id="image5203"
       xlink:href="file:///C:/Users/ibendali/Desktop/elaphant/20150428192635709.png"
       preserveAspectRatio="none"
       height="425"
       width="1750"
       inkscape:export-xdpi="90"
       inkscape:export-ydpi="90" />
    <g
       style="font-style:normal;font-variant:normal;font-weight:normal;font-stretch:normal;font-size:87.05326843px;line-height:125%;font-family:'Hacen Tunisia Bold';-inkscape-font-specification:'Hacen Tunisia Bold, Normal';text-align:start;letter-spacing:0px;word-spacing:0px;writing-mode:lr-tb;text-anchor:start;opacity:0.39899998;fill:#000000;fill-opacity:1;stroke:#000000;stroke-width:3.5;stroke-linecap:butt;stroke-linejoin:miter;stroke-miterlimit:4;stroke-dasharray:none;stroke-opacity:1;filter:url(#filter4357)"
       id="g4239"
       transform="matrix(1.1038485,0,0,1.1038485,-148.06095,140.88253)">
      <path
         d="m 1524.9218,-1339.8917 -10.4992,0 0,-51.5179 10.4992,0 0,51.5179 z m -9.4365,11.9868 q -0.2125,-0.4676 -0.2975,-0.9776 -0.043,-0.5101 -0.043,-1.0202 0,-1.0627 0.34,-2.0828 0.3401,-0.9777 0.9777,-1.7428 0.6801,-0.8076 1.6577,-1.2752 1.0202,-0.4675 2.2954,-0.4675 l 4.7182,0 0,3.528 -4.7182,-0.043 q -1.1477,0 -1.6578,0.6376 -0.5101,0.6801 -0.5101,1.4452 0,0.7226 0.4676,1.3177 0.4676,0.5951 1.4877,0.6801 l 5.3133,0 0,3.5281 -11.6467,0 0,-3.5281 1.6152,0 z"
         style="fill:#000000;stroke:#000000;stroke-width:3.5;stroke-miterlimit:4;stroke-dasharray:none;stroke-opacity:1"
         id="path4241"
         inkscape:connector-curvature="0" />
      <path
         style="fill:#000000;stroke:#000000;stroke-width:3.5;stroke-miterlimit:4;stroke-dasharray:none;stroke-opacity:1"
         d="m 1456.0195,-2174.9199 c -0.7651,0 -1.4878,0.1424 -2.1679,0.4258 -0.6801,0.2834 -1.2751,0.6793 -1.7852,1.1894 -0.5101,0.5101 -0.9081,1.105 -1.1914,1.7852 -0.2834,0.68 -0.4238,1.4174 -0.4238,2.2109 0,0.7651 0.1404,1.4879 0.4238,2.168 0.2833,0.6801 0.6813,1.2751 1.1914,1.7851 0.5101,0.5101 1.1051,0.9061 1.7852,1.1895 0.6801,0.2834 1.4028,0.4258 2.1679,0.4258 0.7934,0 1.5289,-0.1424 2.209,-0.4258 0.6801,-0.2834 1.2751,-0.6794 1.7852,-1.1895 0.51,-0.51 0.908,-1.105 1.1914,-1.7851 0.3116,-0.6801 0.4668,-1.4029 0.4668,-2.168 0,-0.7935 -0.1552,-1.5309 -0.4668,-2.2109 -0.2834,-0.6802 -0.6814,-1.2751 -1.1914,-1.7852 -0.5101,-0.5101 -1.1051,-0.906 -1.7852,-1.1894 -0.6801,-0.2834 -1.4156,-0.4258 -2.209,-0.4258 z m 40.9336,0 c -0.7651,0 -1.4879,0.1424 -2.1679,0.4258 -0.6802,0.2834 -1.2751,0.6793 -1.7852,1.1894 -0.5101,0.5101 -0.908,1.105 -1.1914,1.7852 -0.2834,0.68 -0.4238,1.4174 -0.4238,2.2109 0,0.7651 0.1404,1.4879 0.4238,2.168 0.2834,0.6801 0.6813,1.2751 1.1914,1.7851 0.5101,0.5101 1.105,0.9061 1.7852,1.1895 0.68,0.2834 1.4028,0.4258 2.1679,0.4258 0.7935,0 1.5289,-0.1424 2.209,-0.4258 0.6801,-0.2834 1.2751,-0.6794 1.7852,-1.1895 0.51,-0.51 0.908,-1.105 1.1914,-1.7851 0.3116,-0.6801 0.4668,-1.4029 0.4668,-2.168 0,-0.7935 -0.1552,-1.5309 -0.4668,-2.2109 -0.2834,-0.6802 -0.6814,-1.2751 -1.1914,-1.7852 -0.5101,-0.5101 -1.1051,-0.906 -1.7852,-1.1894 -0.6801,-0.2834 -1.4155,-0.4258 -2.209,-0.4258 z m -93.0898,15.7695 c -1.5869,-0.028 -3.1163,0.1853 -4.5899,0.6387 -1.4735,0.4534 -2.8624,1.0903 -4.166,1.9121 -1.2752,0.8217 -2.4524,1.8001 -3.5293,2.9336 -1.0484,1.1335 -1.9536,2.3381 -2.7187,3.6133 -0.7368,1.2751 -1.3191,2.6075 -1.7442,3.9961 -0.425,1.3885 -0.6367,2.7482 -0.6367,4.08 l 0,9.6914 c -1.7853,0.34 -3.4424,0.9058 -4.9726,1.6993 -1.5019,0.7651 -2.8069,1.7726 -3.9121,3.0195 -1.077,1.2185 -1.9274,2.706 -2.5508,4.4629 -0.6234,1.7569 -0.9336,3.7828 -0.9336,6.0781 l 0,15.0469 10.541,0 0,-15.0469 c 0,-1.1335 0.1551,-2.0406 0.4668,-2.7207 0.3117,-0.6801 0.7515,-1.2039 1.3183,-1.5723 0.5951,-0.3684 1.2886,-0.5946 2.0821,-0.6796 0.8218,-0.1134 1.7435,-0.17 2.7636,-0.17 l 35.7911,0 0.7656,0 55.3848,0 0.4257,0 16.4493,0 c 0.7367,0 1.4175,-0.1277 2.041,-0.3828 0.6517,-0.2833 1.2194,-0.6667 1.7011,-1.1484 0.4818,-0.4818 0.8631,-1.0348 1.1465,-1.6582 0.2834,-0.6518 0.4258,-1.3453 0.4258,-2.0821 l 0,-0.2128 c 0,-0.085 -0.014,-0.1709 -0.043,-0.2559 l 0,-29.8809 -10.5,0 0,25.0782 -11.2207,0 -0.4257,0 -5.5684,0 0,-21.0411 c 0,-0.7084 -0.1404,-1.3726 -0.4238,-1.996 -0.2551,-0.6518 -0.6238,-1.2048 -1.1055,-1.6582 -0.4817,-0.4819 -1.0494,-0.8652 -1.7012,-1.1485 -0.6234,-0.2834 -1.2896,-0.4238 -1.998,-0.4238 l -16.3223,-0.1719 c -2.4654,0 -4.7028,0.4819 -6.7148,1.4453 -1.9836,0.9352 -3.5715,2.1544 -4.7617,3.6563 l 0,-4.6758 -10.5,0 0,26.0137 -6.2891,0 -0.7656,0 -5.4844,0 0,-21.0411 c 0,-0.7084 -0.1405,-1.3726 -0.4238,-1.996 -0.2551,-0.6518 -0.6238,-1.2048 -1.1055,-1.6582 -0.4817,-0.4819 -1.0494,-0.8652 -1.7012,-1.1485 -0.6234,-0.2834 -1.2896,-0.4238 -1.998,-0.4238 -2.097,-0.028 -4.1941,-0.057 -6.291,-0.086 -2.0687,-0.028 -4.1365,-0.057 -6.2051,-0.086 z m -0.1699,10.4981 0.084,0 c 0.057,0 0.2976,0.014 0.7227,0.043 0.4534,0 1.1762,0.014 2.168,0.043 0.9918,0 2.4519,0.014 4.3789,0.043 l 0,15.8125 c -2.4654,0 -4.818,0.014 -7.0567,0.043 l -6.9707,0 0,0 0,-9.0957 c 0,-0.9352 0.1844,-1.8149 0.5528,-2.6367 0.3683,-0.8502 0.8648,-1.5856 1.4882,-2.209 0.6234,-0.6235 1.3316,-1.12 2.125,-1.4883 0.8218,-0.3684 1.6577,-0.5527 2.5079,-0.5527 z m 52.2402,0 c 0.085,0 1.0067,0.014 2.7637,0.043 1.7852,0 4.5904,0.027 8.416,0.084 l 0,15.8125 -22.4863,0 0,-7.1407 c 0.085,-1.4735 0.4536,-2.7493 1.1054,-3.8261 0.6518,-1.1052 1.4876,-2.025 2.5078,-2.7618 1.0485,-0.7368 2.2385,-1.2898 3.5703,-1.6582 1.3319,-0.3684 2.7062,-0.5527 4.1231,-0.5527 z"
         transform="translate(0,782.36214)"
         id="path4243"
         inkscape:connector-curvature="0" />
      <path
         d="m 1347.4147,-1339.8917 -10.4991,0 0,-51.5179 10.4991,0 0,51.5179 z m -9.4364,11.9868 q -0.2126,-0.4676 -0.2976,-0.9776 -0.042,-0.5101 -0.042,-1.0202 0,-1.0627 0.3401,-2.0828 0.34,-0.9777 0.9776,-1.7428 0.6801,-0.8076 1.6578,-1.2752 1.0201,-0.4675 2.2953,-0.4675 l 4.7182,0 0,3.528 -4.7182,-0.043 q -1.1477,0 -1.6577,0.6376 -0.5101,0.6801 -0.5101,1.4452 0,0.7226 0.4676,1.3177 0.4675,0.5951 1.4877,0.6801 l 5.3133,0 0,3.5281 -11.6468,0 0,-3.5281 1.6153,0 z"
         style="fill:#000000;stroke:#000000;stroke-width:3.5;stroke-miterlimit:4;stroke-dasharray:none;stroke-opacity:1"
         id="path4245"
         inkscape:connector-curvature="0" />
      <path
         style="fill:#000000;stroke:#000000;stroke-width:3.5;stroke-miterlimit:4;stroke-dasharray:none;stroke-opacity:1"
         d="m 1272.6875,-2174.9199 c -0.7651,0 -1.4879,0.1424 -2.168,0.4258 -0.6801,0.2834 -1.2751,0.6793 -1.7851,1.1894 -0.5101,0.5101 -0.9061,1.105 -1.1895,1.7852 -0.2833,0.68 -0.4258,1.4174 -0.4258,2.2109 0,0.7651 0.1425,1.4879 0.4258,2.168 0.2834,0.6801 0.6794,1.2751 1.1895,1.7851 0.51,0.5101 1.105,0.9061 1.7851,1.1895 0.6801,0.2834 1.4029,0.4258 2.168,0.4258 0.7935,0 1.5309,-0.1424 2.2109,-0.4258 0.6802,-0.2834 1.2751,-0.6794 1.7852,-1.1895 0.5101,-0.51 0.908,-1.105 1.1914,-1.7851 0.3117,-0.6801 0.4668,-1.4029 0.4668,-2.168 0,-0.7935 -0.1551,-1.5309 -0.4668,-2.2109 -0.2834,-0.6802 -0.6813,-1.2751 -1.1914,-1.7852 -0.5101,-0.5101 -1.105,-0.906 -1.7852,-1.1894 -0.68,-0.2834 -1.4174,-0.4258 -2.2109,-0.4258 z m -31.752,1.1484 0,45.8633 c -0.057,0.1417 -0.084,0.2422 -0.084,0.2988 0.028,0.057 0.041,0.1133 0.041,0.1699 0,0.7368 0.1424,1.4303 0.4258,2.0821 0.2834,0.6234 0.6667,1.1764 1.1484,1.6582 0.4817,0.4817 1.0328,0.8651 1.6562,1.1484 0.6518,0.2551 1.3472,0.3828 2.084,0.3828 l 13.3887,0 0,0 0,0 24.4824,-0.1211 0,0.123 25.1211,0 1.2754,0 11.9023,0 c 0.7651,0 1.4879,-0.157 2.168,-0.4687 0.6801,-0.3117 1.2604,-0.7223 1.7422,-1.2324 0.4817,-0.5384 0.8504,-1.1481 1.1054,-1.8282 0.255,-0.7084 0.3389,-1.4458 0.2539,-2.2109 l 0,-45.8633 -10.498,0 0,41.0606 -6.6738,0 -1.2754,0 -6.291,0 0,-25.0782 -10.4981,0 0,25.0782 -6.9726,0 0,-0.17 -7.5645,0 0,-24.9082 -10.5,0 0,25.0782 -7.7773,0 -8.1622,0 0,-41.0606 -10.5,0 z m 49.9024,57.3418 c -0.7651,0 -1.4878,0.1405 -2.168,0.4238 -0.68,0.2834 -1.2751,0.6814 -1.7851,1.1914 -0.5101,0.5101 -0.9061,1.1051 -1.1895,1.7852 -0.2834,0.6801 -0.4258,1.4156 -0.4258,2.209 0,0.7651 0.1424,1.4878 0.4258,2.168 0.2834,0.68 0.6794,1.275 1.1895,1.7851 0.51,0.5101 1.1051,0.9081 1.7851,1.1914 0.6802,0.3118 1.4029,0.4668 2.168,0.4668 0.7935,0 1.5309,-0.155 2.2109,-0.4668 0.6802,-0.2833 1.2751,-0.6813 1.7852,-1.1914 0.5101,-0.5101 0.906,-1.1051 1.1894,-1.7851 0.3117,-0.6802 0.4688,-1.4029 0.4688,-2.168 0,-0.7934 -0.1571,-1.5289 -0.4688,-2.209 -0.2834,-0.6801 -0.6793,-1.2751 -1.1894,-1.7852 -0.5101,-0.51 -1.105,-0.908 -1.7852,-1.1914 -0.68,-0.2833 -1.4174,-0.4238 -2.2109,-0.4238 z m 12.668,0 c -0.7652,0 -1.4879,0.1405 -2.168,0.4238 -0.6801,0.2834 -1.2751,0.6814 -1.7852,1.1914 -0.51,0.5101 -0.908,1.1051 -1.1914,1.7852 -0.2833,0.6801 -0.4238,1.4156 -0.4238,2.209 0,0.7651 0.1405,1.4878 0.4238,2.168 0.2834,0.68 0.6814,1.275 1.1914,1.7851 0.5101,0.5101 1.1051,0.9081 1.7852,1.1914 0.6801,0.3118 1.4028,0.4668 2.168,0.4668 0.7934,0 1.5289,-0.155 2.2089,-0.4668 0.6802,-0.2833 1.2771,-0.6813 1.7872,-1.1914 0.51,-0.5101 0.906,-1.1051 1.1894,-1.7851 0.3117,-0.6802 0.4668,-1.4029 0.4668,-2.168 0,-0.7934 -0.1551,-1.5289 -0.4668,-2.209 -0.2834,-0.6801 -0.6794,-1.2751 -1.1894,-1.7852 -0.5101,-0.51 -1.107,-0.908 -1.7872,-1.1914 -0.68,-0.2833 -1.4155,-0.4238 -2.2089,-0.4238 z"
         transform="translate(0,782.36214)"
         id="path4247"
         inkscape:connector-curvature="0" />
    </g>
    <g
       id="g4229"
       style="font-style:normal;font-variant:normal;font-weight:normal;font-stretch:normal;font-size:87.05326843px;line-height:125%;font-family:'Hacen Tunisia Bold';-inkscape-font-specification:'Hacen Tunisia Bold, Normal';text-align:start;letter-spacing:0px;word-spacing:0px;writing-mode:lr-tb;text-anchor:start;fill:#000000;fill-opacity:1;stroke:#ffffff;stroke-width:9.30000019;stroke-linecap:butt;stroke-linejoin:miter;stroke-miterlimit:4;stroke-dasharray:none;stroke-opacity:1"
       transform="matrix(1.1038485,0,0,1.1038485,-148.06095,140.88253)">
      <path
         id="path4231"
         style="fill:#000000;stroke:#ffffff;stroke-width:9.30000019;stroke-miterlimit:4;stroke-dasharray:none;stroke-opacity:1"
         d="m 1524.9218,-1339.8917 -10.4992,0 0,-51.5179 10.4992,0 0,51.5179 z m -9.4365,11.9868 q -0.2125,-0.4676 -0.2975,-0.9776 -0.043,-0.5101 -0.043,-1.0202 0,-1.0627 0.34,-2.0828 0.3401,-0.9777 0.9777,-1.7428 0.6801,-0.8076 1.6577,-1.2752 1.0202,-0.4675 2.2954,-0.4675 l 4.7182,0 0,3.528 -4.7182,-0.043 q -1.1477,0 -1.6578,0.6376 -0.5101,0.6801 -0.5101,1.4452 0,0.7226 0.4676,1.3177 0.4676,0.5951 1.4877,0.6801 l 5.3133,0 0,3.5281 -11.6467,0 0,-3.5281 1.6152,0 z"
         inkscape:connector-curvature="0" />
      <path
         id="path4233"
         transform="translate(0,782.36214)"
         d="m 1456.0195,-2174.9199 c -0.7651,0 -1.4878,0.1424 -2.1679,0.4258 -0.6801,0.2834 -1.2751,0.6793 -1.7852,1.1894 -0.5101,0.5101 -0.9081,1.105 -1.1914,1.7852 -0.2834,0.68 -0.4238,1.4174 -0.4238,2.2109 0,0.7651 0.1404,1.4879 0.4238,2.168 0.2833,0.6801 0.6813,1.2751 1.1914,1.7851 0.5101,0.5101 1.1051,0.9061 1.7852,1.1895 0.6801,0.2834 1.4028,0.4258 2.1679,0.4258 0.7934,0 1.5289,-0.1424 2.209,-0.4258 0.6801,-0.2834 1.2751,-0.6794 1.7852,-1.1895 0.51,-0.51 0.908,-1.105 1.1914,-1.7851 0.3116,-0.6801 0.4668,-1.4029 0.4668,-2.168 0,-0.7935 -0.1552,-1.5309 -0.4668,-2.2109 -0.2834,-0.6802 -0.6814,-1.2751 -1.1914,-1.7852 -0.5101,-0.5101 -1.1051,-0.906 -1.7852,-1.1894 -0.6801,-0.2834 -1.4156,-0.4258 -2.209,-0.4258 z m 40.9336,0 c -0.7651,0 -1.4879,0.1424 -2.1679,0.4258 -0.6802,0.2834 -1.2751,0.6793 -1.7852,1.1894 -0.5101,0.5101 -0.908,1.105 -1.1914,1.7852 -0.2834,0.68 -0.4238,1.4174 -0.4238,2.2109 0,0.7651 0.1404,1.4879 0.4238,2.168 0.2834,0.6801 0.6813,1.2751 1.1914,1.7851 0.5101,0.5101 1.105,0.9061 1.7852,1.1895 0.68,0.2834 1.4028,0.4258 2.1679,0.4258 0.7935,0 1.5289,-0.1424 2.209,-0.4258 0.6801,-0.2834 1.2751,-0.6794 1.7852,-1.1895 0.51,-0.51 0.908,-1.105 1.1914,-1.7851 0.3116,-0.6801 0.4668,-1.4029 0.4668,-2.168 0,-0.7935 -0.1552,-1.5309 -0.4668,-2.2109 -0.2834,-0.6802 -0.6814,-1.2751 -1.1914,-1.7852 -0.5101,-0.5101 -1.1051,-0.906 -1.7852,-1.1894 -0.6801,-0.2834 -1.4155,-0.4258 -2.209,-0.4258 z m -93.0898,15.7695 c -1.5869,-0.028 -3.1163,0.1853 -4.5899,0.6387 -1.4735,0.4534 -2.8624,1.0903 -4.166,1.9121 -1.2752,0.8217 -2.4524,1.8001 -3.5293,2.9336 -1.0484,1.1335 -1.9536,2.3381 -2.7187,3.6133 -0.7368,1.2751 -1.3191,2.6075 -1.7442,3.9961 -0.425,1.3885 -0.6367,2.7482 -0.6367,4.08 l 0,9.6914 c -1.7853,0.34 -3.4424,0.9058 -4.9726,1.6993 -1.5019,0.7651 -2.8069,1.7726 -3.9121,3.0195 -1.077,1.2185 -1.9274,2.706 -2.5508,4.4629 -0.6234,1.7569 -0.9336,3.7828 -0.9336,6.0781 l 0,15.0469 10.541,0 0,-15.0469 c 0,-1.1335 0.1551,-2.0406 0.4668,-2.7207 0.3117,-0.6801 0.7515,-1.2039 1.3183,-1.5723 0.5951,-0.3684 1.2886,-0.5946 2.0821,-0.6796 0.8218,-0.1134 1.7435,-0.17 2.7636,-0.17 l 35.7911,0 0.7656,0 55.3848,0 0.4257,0 16.4493,0 c 0.7367,0 1.4175,-0.1277 2.041,-0.3828 0.6517,-0.2833 1.2194,-0.6667 1.7011,-1.1484 0.4818,-0.4818 0.8631,-1.0348 1.1465,-1.6582 0.2834,-0.6518 0.4258,-1.3453 0.4258,-2.0821 l 0,-0.2128 c 0,-0.085 -0.014,-0.1709 -0.043,-0.2559 l 0,-29.8809 -10.5,0 0,25.0782 -11.2207,0 -0.4257,0 -5.5684,0 0,-21.0411 c 0,-0.7084 -0.1404,-1.3726 -0.4238,-1.996 -0.2551,-0.6518 -0.6238,-1.2048 -1.1055,-1.6582 -0.4817,-0.4819 -1.0494,-0.8652 -1.7012,-1.1485 -0.6234,-0.2834 -1.2896,-0.4238 -1.998,-0.4238 l -16.3223,-0.1719 c -2.4654,0 -4.7028,0.4819 -6.7148,1.4453 -1.9836,0.9352 -3.5715,2.1544 -4.7617,3.6563 l 0,-4.6758 -10.5,0 0,26.0137 -6.2891,0 -0.7656,0 -5.4844,0 0,-21.0411 c 0,-0.7084 -0.1405,-1.3726 -0.4238,-1.996 -0.2551,-0.6518 -0.6238,-1.2048 -1.1055,-1.6582 -0.4817,-0.4819 -1.0494,-0.8652 -1.7012,-1.1485 -0.6234,-0.2834 -1.2896,-0.4238 -1.998,-0.4238 -2.097,-0.028 -4.1941,-0.057 -6.291,-0.086 -2.0687,-0.028 -4.1365,-0.057 -6.2051,-0.086 z m -0.1699,10.4981 0.084,0 c 0.057,0 0.2976,0.014 0.7227,0.043 0.4534,0 1.1762,0.014 2.168,0.043 0.9918,0 2.4519,0.014 4.3789,0.043 l 0,15.8125 c -2.4654,0 -4.818,0.014 -7.0567,0.043 l -6.9707,0 0,0 0,-9.0957 c 0,-0.9352 0.1844,-1.8149 0.5528,-2.6367 0.3683,-0.8502 0.8648,-1.5856 1.4882,-2.209 0.6234,-0.6235 1.3316,-1.12 2.125,-1.4883 0.8218,-0.3684 1.6577,-0.5527 2.5079,-0.5527 z m 52.2402,0 c 0.085,0 1.0067,0.014 2.7637,0.043 1.7852,0 4.5904,0.027 8.416,0.084 l 0,15.8125 -22.4863,0 0,-7.1407 c 0.085,-1.4735 0.4536,-2.7493 1.1054,-3.8261 0.6518,-1.1052 1.4876,-2.025 2.5078,-2.7618 1.0485,-0.7368 2.2385,-1.2898 3.5703,-1.6582 1.3319,-0.3684 2.7062,-0.5527 4.1231,-0.5527 z"
         style="fill:#000000;stroke:#ffffff;stroke-width:9.30000019;stroke-miterlimit:4;stroke-dasharray:none;stroke-opacity:1"
         inkscape:connector-curvature="0" />
      <path
         id="path4235"
         style="fill:#000000;stroke:#ffffff;stroke-width:9.30000019;stroke-miterlimit:4;stroke-dasharray:none;stroke-opacity:1"
         d="m 1347.4147,-1339.8917 -10.4991,0 0,-51.5179 10.4991,0 0,51.5179 z m -9.4364,11.9868 q -0.2126,-0.4676 -0.2976,-0.9776 -0.042,-0.5101 -0.042,-1.0202 0,-1.0627 0.3401,-2.0828 0.34,-0.9777 0.9776,-1.7428 0.6801,-0.8076 1.6578,-1.2752 1.0201,-0.4675 2.2953,-0.4675 l 4.7182,0 0,3.528 -4.7182,-0.043 q -1.1477,0 -1.6577,0.6376 -0.5101,0.6801 -0.5101,1.4452 0,0.7226 0.4676,1.3177 0.4675,0.5951 1.4877,0.6801 l 5.3133,0 0,3.5281 -11.6468,0 0,-3.5281 1.6153,0 z"
         inkscape:connector-curvature="0" />
      <path
         id="path4237"
         transform="translate(0,782.36214)"
         d="m 1272.6875,-2174.9199 c -0.7651,0 -1.4879,0.1424 -2.168,0.4258 -0.6801,0.2834 -1.2751,0.6793 -1.7851,1.1894 -0.5101,0.5101 -0.9061,1.105 -1.1895,1.7852 -0.2833,0.68 -0.4258,1.4174 -0.4258,2.2109 0,0.7651 0.1425,1.4879 0.4258,2.168 0.2834,0.6801 0.6794,1.2751 1.1895,1.7851 0.51,0.5101 1.105,0.9061 1.7851,1.1895 0.6801,0.2834 1.4029,0.4258 2.168,0.4258 0.7935,0 1.5309,-0.1424 2.2109,-0.4258 0.6802,-0.2834 1.2751,-0.6794 1.7852,-1.1895 0.5101,-0.51 0.908,-1.105 1.1914,-1.7851 0.3117,-0.6801 0.4668,-1.4029 0.4668,-2.168 0,-0.7935 -0.1551,-1.5309 -0.4668,-2.2109 -0.2834,-0.6802 -0.6813,-1.2751 -1.1914,-1.7852 -0.5101,-0.5101 -1.105,-0.906 -1.7852,-1.1894 -0.68,-0.2834 -1.4174,-0.4258 -2.2109,-0.4258 z m -31.752,1.1484 0,45.8633 c -0.057,0.1417 -0.084,0.2422 -0.084,0.2988 0.028,0.057 0.041,0.1133 0.041,0.1699 0,0.7368 0.1424,1.4303 0.4258,2.0821 0.2834,0.6234 0.6667,1.1764 1.1484,1.6582 0.4817,0.4817 1.0328,0.8651 1.6562,1.1484 0.6518,0.2551 1.3472,0.3828 2.084,0.3828 l 13.3887,0 0,0 0,0 24.4824,-0.1211 0,0.123 25.1211,0 1.2754,0 11.9023,0 c 0.7651,0 1.4879,-0.157 2.168,-0.4687 0.6801,-0.3117 1.2604,-0.7223 1.7422,-1.2324 0.4817,-0.5384 0.8504,-1.1481 1.1054,-1.8282 0.255,-0.7084 0.3389,-1.4458 0.2539,-2.2109 l 0,-45.8633 -10.498,0 0,41.0606 -6.6738,0 -1.2754,0 -6.291,0 0,-25.0782 -10.4981,0 0,25.0782 -6.9726,0 0,-0.17 -7.5645,0 0,-24.9082 -10.5,0 0,25.0782 -7.7773,0 -8.1622,0 0,-41.0606 -10.5,0 z m 49.9024,57.3418 c -0.7651,0 -1.4878,0.1405 -2.168,0.4238 -0.68,0.2834 -1.2751,0.6814 -1.7851,1.1914 -0.5101,0.5101 -0.9061,1.1051 -1.1895,1.7852 -0.2834,0.6801 -0.4258,1.4156 -0.4258,2.209 0,0.7651 0.1424,1.4878 0.4258,2.168 0.2834,0.68 0.6794,1.275 1.1895,1.7851 0.51,0.5101 1.1051,0.9081 1.7851,1.1914 0.6802,0.3118 1.4029,0.4668 2.168,0.4668 0.7935,0 1.5309,-0.155 2.2109,-0.4668 0.6802,-0.2833 1.2751,-0.6813 1.7852,-1.1914 0.5101,-0.5101 0.906,-1.1051 1.1894,-1.7851 0.3117,-0.6802 0.4688,-1.4029 0.4688,-2.168 0,-0.7934 -0.1571,-1.5289 -0.4688,-2.209 -0.2834,-0.6801 -0.6793,-1.2751 -1.1894,-1.7852 -0.5101,-0.51 -1.105,-0.908 -1.7852,-1.1914 -0.68,-0.2833 -1.4174,-0.4238 -2.2109,-0.4238 z m 12.668,0 c -0.7652,0 -1.4879,0.1405 -2.168,0.4238 -0.6801,0.2834 -1.2751,0.6814 -1.7852,1.1914 -0.51,0.5101 -0.908,1.1051 -1.1914,1.7852 -0.2833,0.6801 -0.4238,1.4156 -0.4238,2.209 0,0.7651 0.1405,1.4878 0.4238,2.168 0.2834,0.68 0.6814,1.275 1.1914,1.7851 0.5101,0.5101 1.1051,0.9081 1.7852,1.1914 0.6801,0.3118 1.4028,0.4668 2.168,0.4668 0.7934,0 1.5289,-0.155 2.2089,-0.4668 0.6802,-0.2833 1.2771,-0.6813 1.7872,-1.1914 0.51,-0.5101 0.906,-1.1051 1.1894,-1.7851 0.3117,-0.6802 0.4668,-1.4029 0.4668,-2.168 0,-0.7934 -0.1551,-1.5289 -0.4668,-2.209 -0.2834,-0.6801 -0.6794,-1.2751 -1.1894,-1.7852 -0.5101,-0.51 -1.107,-0.908 -1.7872,-1.1914 -0.68,-0.2833 -1.4155,-0.4238 -2.2089,-0.4238 z"
         style="fill:#000000;stroke:#ffffff;stroke-width:9.30000019;stroke-miterlimit:4;stroke-dasharray:none;stroke-opacity:1"
         inkscape:connector-curvature="0" />
    </g>
    <g
       style="font-style:normal;font-variant:normal;font-weight:normal;font-stretch:normal;font-size:87.05326843px;line-height:125%;font-family:'Hacen Tunisia Bold';-inkscape-font-specification:'Hacen Tunisia Bold, Normal';text-align:start;letter-spacing:0px;word-spacing:0px;writing-mode:lr-tb;text-anchor:start;fill:#214478;fill-opacity:1;stroke:none;stroke-width:8.5;stroke-linecap:butt;stroke-linejoin:miter;stroke-miterlimit:4;stroke-dasharray:none;stroke-opacity:1"
       id="text5206"
       transform="matrix(1.1038485,0,0,1.1038485,-148.06095,140.88253)">
      <path
         d="m 1524.9218,-1339.8917 -10.4992,0 0,-51.5179 10.4992,0 0,51.5179 z m -9.4365,11.9868 q -0.2125,-0.4676 -0.2975,-0.9776 -0.043,-0.5101 -0.043,-1.0202 0,-1.0627 0.34,-2.0828 0.3401,-0.9777 0.9777,-1.7428 0.6801,-0.8076 1.6577,-1.2752 1.0202,-0.4675 2.2954,-0.4675 l 4.7182,0 0,3.528 -4.7182,-0.043 q -1.1477,0 -1.6578,0.6376 -0.5101,0.6801 -0.5101,1.4452 0,0.7226 0.4676,1.3177 0.4676,0.5951 1.4877,0.6801 l 5.3133,0 0,3.5281 -11.6467,0 0,-3.5281 1.6152,0 z"
         style="fill:#214478;stroke:none;stroke-width:8.5;stroke-miterlimit:4;stroke-dasharray:none"
         id="path4181"
         inkscape:connector-curvature="0" />
      <path
         style="fill:#214478;stroke:none;stroke-width:8.5;stroke-miterlimit:4;stroke-dasharray:none"
         d="m 1456.0195,-2174.9199 c -0.7651,0 -1.4878,0.1424 -2.1679,0.4258 -0.6801,0.2834 -1.2751,0.6793 -1.7852,1.1894 -0.5101,0.5101 -0.9081,1.105 -1.1914,1.7852 -0.2834,0.68 -0.4238,1.4174 -0.4238,2.2109 0,0.7651 0.1404,1.4879 0.4238,2.168 0.2833,0.6801 0.6813,1.2751 1.1914,1.7851 0.5101,0.5101 1.1051,0.9061 1.7852,1.1895 0.6801,0.2834 1.4028,0.4258 2.1679,0.4258 0.7934,0 1.5289,-0.1424 2.209,-0.4258 0.6801,-0.2834 1.2751,-0.6794 1.7852,-1.1895 0.51,-0.51 0.908,-1.105 1.1914,-1.7851 0.3116,-0.6801 0.4668,-1.4029 0.4668,-2.168 0,-0.7935 -0.1552,-1.5309 -0.4668,-2.2109 -0.2834,-0.6802 -0.6814,-1.2751 -1.1914,-1.7852 -0.5101,-0.5101 -1.1051,-0.906 -1.7852,-1.1894 -0.6801,-0.2834 -1.4156,-0.4258 -2.209,-0.4258 z m 40.9336,0 c -0.7651,0 -1.4879,0.1424 -2.1679,0.4258 -0.6802,0.2834 -1.2751,0.6793 -1.7852,1.1894 -0.5101,0.5101 -0.908,1.105 -1.1914,1.7852 -0.2834,0.68 -0.4238,1.4174 -0.4238,2.2109 0,0.7651 0.1404,1.4879 0.4238,2.168 0.2834,0.6801 0.6813,1.2751 1.1914,1.7851 0.5101,0.5101 1.105,0.9061 1.7852,1.1895 0.68,0.2834 1.4028,0.4258 2.1679,0.4258 0.7935,0 1.5289,-0.1424 2.209,-0.4258 0.6801,-0.2834 1.2751,-0.6794 1.7852,-1.1895 0.51,-0.51 0.908,-1.105 1.1914,-1.7851 0.3116,-0.6801 0.4668,-1.4029 0.4668,-2.168 0,-0.7935 -0.1552,-1.5309 -0.4668,-2.2109 -0.2834,-0.6802 -0.6814,-1.2751 -1.1914,-1.7852 -0.5101,-0.5101 -1.1051,-0.906 -1.7852,-1.1894 -0.6801,-0.2834 -1.4155,-0.4258 -2.209,-0.4258 z m -93.0898,15.7695 c -1.5869,-0.028 -3.1163,0.1853 -4.5899,0.6387 -1.4735,0.4534 -2.8624,1.0903 -4.166,1.9121 -1.2752,0.8217 -2.4524,1.8001 -3.5293,2.9336 -1.0484,1.1335 -1.9536,2.3381 -2.7187,3.6133 -0.7368,1.2751 -1.3191,2.6075 -1.7442,3.9961 -0.425,1.3885 -0.6367,2.7482 -0.6367,4.08 l 0,9.6914 c -1.7853,0.34 -3.4424,0.9058 -4.9726,1.6993 -1.5019,0.7651 -2.8069,1.7726 -3.9121,3.0195 -1.077,1.2185 -1.9274,2.706 -2.5508,4.4629 -0.6234,1.7569 -0.9336,3.7828 -0.9336,6.0781 l 0,15.0469 10.541,0 0,-15.0469 c 0,-1.1335 0.1551,-2.0406 0.4668,-2.7207 0.3117,-0.6801 0.7515,-1.2039 1.3183,-1.5723 0.5951,-0.3684 1.2886,-0.5946 2.0821,-0.6796 0.8218,-0.1134 1.7435,-0.17 2.7636,-0.17 l 35.7911,0 0.7656,0 55.3848,0 0.4257,0 16.4493,0 c 0.7367,0 1.4175,-0.1277 2.041,-0.3828 0.6517,-0.2833 1.2194,-0.6667 1.7011,-1.1484 0.4818,-0.4818 0.8631,-1.0348 1.1465,-1.6582 0.2834,-0.6518 0.4258,-1.3453 0.4258,-2.0821 l 0,-0.2128 c 0,-0.085 -0.014,-0.1709 -0.043,-0.2559 l 0,-29.8809 -10.5,0 0,25.0782 -11.2207,0 -0.4257,0 -5.5684,0 0,-21.0411 c 0,-0.7084 -0.1404,-1.3726 -0.4238,-1.996 -0.2551,-0.6518 -0.6238,-1.2048 -1.1055,-1.6582 -0.4817,-0.4819 -1.0494,-0.8652 -1.7012,-1.1485 -0.6234,-0.2834 -1.2896,-0.4238 -1.998,-0.4238 l -16.3223,-0.1719 c -2.4654,0 -4.7028,0.4819 -6.7148,1.4453 -1.9836,0.9352 -3.5715,2.1544 -4.7617,3.6563 l 0,-4.6758 -10.5,0 0,26.0137 -6.2891,0 -0.7656,0 -5.4844,0 0,-21.0411 c 0,-0.7084 -0.1405,-1.3726 -0.4238,-1.996 -0.2551,-0.6518 -0.6238,-1.2048 -1.1055,-1.6582 -0.4817,-0.4819 -1.0494,-0.8652 -1.7012,-1.1485 -0.6234,-0.2834 -1.2896,-0.4238 -1.998,-0.4238 -2.097,-0.028 -4.1941,-0.057 -6.291,-0.086 -2.0687,-0.028 -4.1365,-0.057 -6.2051,-0.086 z m -0.1699,10.4981 0.084,0 c 0.057,0 0.2976,0.014 0.7227,0.043 0.4534,0 1.1762,0.014 2.168,0.043 0.9918,0 2.4519,0.014 4.3789,0.043 l 0,15.8125 c -2.4654,0 -4.818,0.014 -7.0567,0.043 l -6.9707,0 0,0 0,-9.0957 c 0,-0.9352 0.1844,-1.8149 0.5528,-2.6367 0.3683,-0.8502 0.8648,-1.5856 1.4882,-2.209 0.6234,-0.6235 1.3316,-1.12 2.125,-1.4883 0.8218,-0.3684 1.6577,-0.5527 2.5079,-0.5527 z m 52.2402,0 c 0.085,0 1.0067,0.014 2.7637,0.043 1.7852,0 4.5904,0.027 8.416,0.084 l 0,15.8125 -22.4863,0 0,-7.1407 c 0.085,-1.4735 0.4536,-2.7493 1.1054,-3.8261 0.6518,-1.1052 1.4876,-2.025 2.5078,-2.7618 1.0485,-0.7368 2.2385,-1.2898 3.5703,-1.6582 1.3319,-0.3684 2.7062,-0.5527 4.1231,-0.5527 z"
         transform="translate(0,782.36214)"
         id="path4183"
         inkscape:connector-curvature="0" />
      <path
         d="m 1347.4147,-1339.8917 -10.4991,0 0,-51.5179 10.4991,0 0,51.5179 z m -9.4364,11.9868 q -0.2126,-0.4676 -0.2976,-0.9776 -0.042,-0.5101 -0.042,-1.0202 0,-1.0627 0.3401,-2.0828 0.34,-0.9777 0.9776,-1.7428 0.6801,-0.8076 1.6578,-1.2752 1.0201,-0.4675 2.2953,-0.4675 l 4.7182,0 0,3.528 -4.7182,-0.043 q -1.1477,0 -1.6577,0.6376 -0.5101,0.6801 -0.5101,1.4452 0,0.7226 0.4676,1.3177 0.4675,0.5951 1.4877,0.6801 l 5.3133,0 0,3.5281 -11.6468,0 0,-3.5281 1.6153,0 z"
         style="fill:#214478;stroke:none;stroke-width:8.5;stroke-miterlimit:4;stroke-dasharray:none"
         id="path4189"
         inkscape:connector-curvature="0" />
      <path
         style="fill:#214478;stroke:none;stroke-width:8.5;stroke-miterlimit:4;stroke-dasharray:none"
         d="m 1272.6875,-2174.9199 c -0.7651,0 -1.4879,0.1424 -2.168,0.4258 -0.6801,0.2834 -1.2751,0.6793 -1.7851,1.1894 -0.5101,0.5101 -0.9061,1.105 -1.1895,1.7852 -0.2833,0.68 -0.4258,1.4174 -0.4258,2.2109 0,0.7651 0.1425,1.4879 0.4258,2.168 0.2834,0.6801 0.6794,1.2751 1.1895,1.7851 0.51,0.5101 1.105,0.9061 1.7851,1.1895 0.6801,0.2834 1.4029,0.4258 2.168,0.4258 0.7935,0 1.5309,-0.1424 2.2109,-0.4258 0.6802,-0.2834 1.2751,-0.6794 1.7852,-1.1895 0.5101,-0.51 0.908,-1.105 1.1914,-1.7851 0.3117,-0.6801 0.4668,-1.4029 0.4668,-2.168 0,-0.7935 -0.1551,-1.5309 -0.4668,-2.2109 -0.2834,-0.6802 -0.6813,-1.2751 -1.1914,-1.7852 -0.5101,-0.5101 -1.105,-0.906 -1.7852,-1.1894 -0.68,-0.2834 -1.4174,-0.4258 -2.2109,-0.4258 z m -31.752,1.1484 0,45.8633 c -0.057,0.1417 -0.084,0.2422 -0.084,0.2988 0.028,0.057 0.041,0.1133 0.041,0.1699 0,0.7368 0.1424,1.4303 0.4258,2.0821 0.2834,0.6234 0.6667,1.1764 1.1484,1.6582 0.4817,0.4817 1.0328,0.8651 1.6562,1.1484 0.6518,0.2551 1.3472,0.3828 2.084,0.3828 l 13.3887,0 0,0 0,0 24.4824,-0.1211 0,0.123 25.1211,0 1.2754,0 11.9023,0 c 0.7651,0 1.4879,-0.157 2.168,-0.4687 0.6801,-0.3117 1.2604,-0.7223 1.7422,-1.2324 0.4817,-0.5384 0.8504,-1.1481 1.1054,-1.8282 0.255,-0.7084 0.3389,-1.4458 0.2539,-2.2109 l 0,-45.8633 -10.498,0 0,41.0606 -6.6738,0 -1.2754,0 -6.291,0 0,-25.0782 -10.4981,0 0,25.0782 -6.9726,0 0,-0.17 -7.5645,0 0,-24.9082 -10.5,0 0,25.0782 -7.7773,0 -8.1622,0 0,-41.0606 -10.5,0 z m 49.9024,57.3418 c -0.7651,0 -1.4878,0.1405 -2.168,0.4238 -0.68,0.2834 -1.2751,0.6814 -1.7851,1.1914 -0.5101,0.5101 -0.9061,1.1051 -1.1895,1.7852 -0.2834,0.6801 -0.4258,1.4156 -0.4258,2.209 0,0.7651 0.1424,1.4878 0.4258,2.168 0.2834,0.68 0.6794,1.275 1.1895,1.7851 0.51,0.5101 1.1051,0.9081 1.7851,1.1914 0.6802,0.3118 1.4029,0.4668 2.168,0.4668 0.7935,0 1.5309,-0.155 2.2109,-0.4668 0.6802,-0.2833 1.2751,-0.6813 1.7852,-1.1914 0.5101,-0.5101 0.906,-1.1051 1.1894,-1.7851 0.3117,-0.6802 0.4688,-1.4029 0.4688,-2.168 0,-0.7934 -0.1571,-1.5289 -0.4688,-2.209 -0.2834,-0.6801 -0.6793,-1.2751 -1.1894,-1.7852 -0.5101,-0.51 -1.105,-0.908 -1.7852,-1.1914 -0.68,-0.2833 -1.4174,-0.4238 -2.2109,-0.4238 z m 12.668,0 c -0.7652,0 -1.4879,0.1405 -2.168,0.4238 -0.6801,0.2834 -1.2751,0.6814 -1.7852,1.1914 -0.51,0.5101 -0.908,1.1051 -1.1914,1.7852 -0.2833,0.6801 -0.4238,1.4156 -0.4238,2.209 0,0.7651 0.1405,1.4878 0.4238,2.168 0.2834,0.68 0.6814,1.275 1.1914,1.7851 0.5101,0.5101 1.1051,0.9081 1.7852,1.1914 0.6801,0.3118 1.4028,0.4668 2.168,0.4668 0.7934,0 1.5289,-0.155 2.2089,-0.4668 0.6802,-0.2833 1.2771,-0.6813 1.7872,-1.1914 0.51,-0.5101 0.906,-1.1051 1.1894,-1.7851 0.3117,-0.6802 0.4668,-1.4029 0.4668,-2.168 0,-0.7934 -0.1551,-1.5289 -0.4668,-2.209 -0.2834,-0.6801 -0.6794,-1.2751 -1.1894,-1.7852 -0.5101,-0.51 -1.107,-0.908 -1.7872,-1.1914 -0.68,-0.2833 -1.4155,-0.4238 -2.2089,-0.4238 z"
         transform="translate(0,782.36214)"
         id="path4191"
         inkscape:connector-curvature="0" />
    </g>
    <text
       xml:space="preserve"
       style="font-style:normal;font-variant:normal;font-weight:normal;font-stretch:normal;font-size:143.5411377px;line-height:125%;font-family:'Far.Dast Nevis';-inkscape-font-specification:'Far.Dast Nevis, Normal';text-align:start;letter-spacing:0px;word-spacing:0px;writing-mode:lr-tb;text-anchor:start;fill:#f2f2f2;fill-opacity:1;stroke:none;stroke-width:1px;stroke-linecap:butt;stroke-linejoin:miter;stroke-opacity:1"
       x="1231.5961"
       y="-46.652489"
       id="text4372"
       sodipodi:linespacing="125%"><tspan
         sodipodi:role="line"
         id="tspan4374"
         x="1231.5961"
         y="-46.652489">إنضم إلينا الي المستودع الدروس و التنمرين</tspan></text>
    <g
       transform="matrix(3.8239114,0,0,3.8239114,1080.5017,-4282.4157)"
       id="layer1-0"
       inkscape:label="Layer 1">
      <path
         inkscape:connector-curvature="0"
         d="m 62.47745,1033.2731 c -7.29117,-3.0553 -15.19972,-7.6009 -18.877,-10.8498 l -1.42196,-1.2563 0.77442,-1.8004 0.77442,-1.8004 1.96371,1.8913 c 2.75172,2.6502 7.63325,6.3375 14.56472,11.0016 3.26454,2.1966 6.00517,4.0545 6.09028,4.1286 0.44691,0.3892 -0.87342,-0.059 -3.86859,-1.3146 z m -38.06682,-5.1981 c -5.19114,-3.4036 -6.19231,-4.2103 -6.54966,-5.2772 -0.232,-0.6927 -0.72181,-5.3047 -1.08844,-10.249 -0.75048,-10.1207 -0.70055,-10.4806 1.59048,-11.4593 2.62258,-1.12042 8.44797,-2.41802 11.87575,-2.64544 l 3.41414,-0.2265 -1.27364,3.92774 c -0.7005,2.1603 -1.38174,5.0911 -1.51389,6.5129 -0.22701,2.4425 -0.19143,2.617 0.64487,3.1637 1.09716,0.7172 5.15605,2.5261 5.15605,2.2979 0,-0.092 -1.02517,-0.8633 -2.27817,-1.7142 l -2.27817,-1.5471 0.21186,-2.5269 c 0.11655,-1.3899 0.81329,-4.3244 1.54839,-6.5212 0.73511,-2.19682 1.25688,-4.20194 1.1595,-4.45574 -0.0974,-0.2537 -0.98062,-0.5698 -1.96276,-0.7023 -0.98214,-0.1324 -2.19953,-0.3657 -2.70528,-0.5182 -0.88082,-0.2656 -0.8417,-0.3231 0.92845,-1.3635 1.79657,-1.0559 2.00847,-1.0894 7.60913,-1.2033 3.37285,-0.068 6.17962,0.042 6.77071,0.2667 0.79716,0.303 1.43292,1.2655 3.02114,4.5737 2.44972,5.10274 6.37911,14.40274 8.6476,20.46714 1.66161,4.4419 1.67451,4.5119 1.22283,6.6403 -0.25105,1.183 -0.55897,2.1494 -0.68425,2.1474 -0.72542,-0.012 -6.03492,-4.4798 -9.79997,-8.2475 -2.40504,-2.4068 -4.44192,-4.376 -4.52641,-4.376 -0.0845,0 -0.62082,1.4346 -1.19184,3.1881 -0.93855,2.8819 -1.15905,3.2384 -2.2967,3.7138 -1.788,0.7471 -1.93387,0.6749 -1.37682,-0.6812 0.2727,-0.6638 0.60938,-1.7919 0.74816,-2.5068 0.15886,-0.8184 -0.93698,0.9012 -2.95838,4.6423 -3.8205,7.0706 -4.86537,8.7325 -5.47789,8.7125 -0.25242,-0.01 -3.21648,-1.823 -6.58679,-4.0328 z m 25.2785,-17.5055 c 1.28221,-0.6862 0.87256,-1.4725 -0.76718,-1.4725 -1.53079,0 -1.92124,0.5299 -1.03987,1.4113 0.54562,0.5456 0.88072,0.5569 1.80705,0.061 z m -10.45892,40.7184 c 4.71656,0.1879 6.50051,0.093 6.61844,-0.3526 0.0652,-0.2465 -0.33939,-1.4647 -0.89922,-2.7072 l -1.01789,-2.259 -2.10099,0.9124 c -1.15554,0.5019 -2.1459,0.835 -2.20077,0.7403 -0.54057,-0.9327 -0.68385,-3.1224 -0.23352,-3.5688 0.30093,-0.2983 4.08513,-3.223 8.40936,-6.4994 4.32422,-3.2763 7.80659,-6.0529 7.73859,-6.1702 -0.0947,-0.1634 -5.70025,-3.5997 -6.39291,-3.919 -0.19038,-0.088 -12.25729,12.7925 -13.77604,14.7046 -1.09538,1.3791 -1.18283,1.7146 -0.82376,3.1603 0.22094,0.8896 0.83208,2.573 1.35807,3.741 l 0.95637,2.1234 z"
         style="fill:#ffffff;fill-opacity:1"
         id="path3357"
         inkscape:export-xdpi="90"
         inkscape:export-ydpi="90" />
      <text
         xml:space="preserve"
         style="font-style:normal;font-variant:normal;font-weight:bold;font-stretch:normal;font-size:31.37228775px;line-height:125%;font-family:Cantarell;-inkscape-font-specification:'Cantarell, Bold';text-align:start;letter-spacing:0px;word-spacing:0px;writing-mode:lr-tb;text-anchor:start;fill:#ffffff;fill-opacity:1;stroke:none;stroke-width:1px;stroke-linecap:butt;stroke-linejoin:miter;stroke-opacity:1"
         x="68.693497"
         y="1015.9341"
         id="text3359"
         sodipodi:linespacing="125%"><tspan
           sodipodi:role="line"
           id="tspan3361"
           x="68.693497"
           y="1015.9341">Elephant</tspan><tspan
           sodipodi:role="line"
           x="68.693497"
           y="1045.392"
           id="tspan3363"
           style="font-style:normal;font-variant:normal;font-weight:bold;font-stretch:normal;font-size:21.93610764px;line-height:125%;font-family:Cantarell;-inkscape-font-specification:'Cantarell, Bold';text-align:start;writing-mode:lr-tb;text-anchor:start;fill:#ffffff"> Memory</tspan></text>
    </g>
  </g>
</svg>
