<?xml version="1.0" encoding="UTF-8" standalone="no"?>
<!-- Created with Inkscape (http://www.inkscape.org/) -->

<svg
   xmlns:dc="http://purl.org/dc/elements/1.1/"
   xmlns:cc="http://creativecommons.org/ns#"
   xmlns:rdf="http://www.w3.org/1999/02/22-rdf-syntax-ns#"
   xmlns:svg="http://www.w3.org/2000/svg"
   xmlns="http://www.w3.org/2000/svg"
   xmlns:sodipodi="http://sodipodi.sourceforge.net/DTD/sodipodi-0.dtd"
   xmlns:inkscape="http://www.inkscape.org/namespaces/inkscape"
   width="217"
   height="60"
   viewBox="0 0 217 60.000001"
   id="svg3378"
   version="1.1"
   inkscape:version="0.91 r13725"
   sodipodi:docname="logo.svg">
  <defs
     id="defs3380" />
  <sodipodi:namedview
     id="base"
     pagecolor="#ffffff"
     bordercolor="#666666"
     borderopacity="1.0"
     inkscape:pageopacity="0.0"
     inkscape:pageshadow="2"
     inkscape:zoom="1.979899"
     inkscape:cx="96.703574"
     inkscape:cy="58.629844"
     inkscape:document-units="px"
     inkscape:current-layer="layer1"
     showgrid="false"
     units="px"
     inkscape:window-width="1280"
     inkscape:window-height="745"
     inkscape:window-x="0"
     inkscape:window-y="0"
     inkscape:window-maximized="1" />
  <metadata
     id="metadata3383">
    <rdf:RDF>
      <cc:Work
         rdf:about="">
        <dc:format>image/svg+xml</dc:format>
        <dc:type
           rdf:resource="http://purl.org/dc/dcmitype/StillImage" />
        <dc:title></dc:title>
      </cc:Work>
    </rdf:RDF>
  </metadata>
  <g
     inkscape:label="Layer 1"
     inkscape:groupmode="layer"
     id="layer1"
     transform="translate(0,-992.36216)">
    <path
       inkscape:export-ydpi="90"
       inkscape:export-xdpi="90"
       id="path3357"
       style="fill:#ffffff;fill-opacity:1"
       d="m 62.47745,1033.2731 c -7.29117,-3.0553 -15.19972,-7.6009 -18.877,-10.8498 l -1.42196,-1.2563 0.77442,-1.8004 0.77442,-1.8004 1.96371,1.8913 c 2.75172,2.6502 7.63325,6.3375 14.56472,11.0016 3.26454,2.1966 6.00517,4.0545 6.09028,4.1286 0.44691,0.3892 -0.87342,-0.059 -3.86859,-1.3146 z m -38.06682,-5.1981 c -5.19114,-3.4036 -6.19231,-4.2103 -6.54966,-5.2772 -0.232,-0.6927 -0.72181,-5.3047 -1.08844,-10.249 -0.75048,-10.1207 -0.70055,-10.4806 1.59048,-11.4593 2.62258,-1.12042 8.44797,-2.41802 11.87575,-2.64544 l 3.41414,-0.2265 -1.27364,3.92774 c -0.7005,2.1603 -1.38174,5.0911 -1.51389,6.5129 -0.22701,2.4425 -0.19143,2.617 0.64487,3.1637 1.09716,0.7172 5.15605,2.5261 5.15605,2.2979 0,-0.092 -1.02517,-0.8633 -2.27817,-1.7142 l -2.27817,-1.5471 0.21186,-2.5269 c 0.11655,-1.3899 0.81329,-4.3244 1.54839,-6.5212 0.73511,-2.19682 1.25688,-4.20194 1.1595,-4.45574 -0.0974,-0.2537 -0.98062,-0.5698 -1.96276,-0.7023 -0.98214,-0.1324 -2.19953,-0.3657 -2.70528,-0.5182 -0.88082,-0.2656 -0.8417,-0.3231 0.92845,-1.3635 1.79657,-1.0559 2.00847,-1.0894 7.60913,-1.2033 3.37285,-0.068 6.17962,0.042 6.77071,0.2667 0.79716,0.303 1.43292,1.2655 3.02114,4.5737 2.44972,5.10274 6.37911,14.40274 8.6476,20.46714 1.66161,4.4419 1.67451,4.5119 1.22283,6.6403 -0.25105,1.183 -0.55897,2.1494 -0.68425,2.1474 -0.72542,-0.012 -6.03492,-4.4798 -9.79997,-8.2475 -2.40504,-2.4068 -4.44192,-4.376 -4.52641,-4.376 -0.0845,0 -0.62082,1.4346 -1.19184,3.1881 -0.93855,2.8819 -1.15905,3.2384 -2.2967,3.7138 -1.788,0.7471 -1.93387,0.6749 -1.37682,-0.6812 0.2727,-0.6638 0.60938,-1.7919 0.74816,-2.5068 0.15886,-0.8184 -0.93698,0.9012 -2.95838,4.6423 -3.8205,7.0706 -4.86537,8.7325 -5.47789,8.7125 -0.25242,-0.01 -3.21648,-1.823 -6.58679,-4.0328 z m 25.2785,-17.5055 c 1.28221,-0.6862 0.87256,-1.4725 -0.76718,-1.4725 -1.53079,0 -1.92124,0.5299 -1.03987,1.4113 0.54562,0.5456 0.88072,0.5569 1.80705,0.061 z m -10.45892,40.7184 c 4.71656,0.1879 6.50051,0.093 6.61844,-0.3526 0.0652,-0.2465 -0.33939,-1.4647 -0.89922,-2.7072 l -1.01789,-2.259 -2.10099,0.9124 c -1.15554,0.5019 -2.1459,0.835 -2.20077,0.7403 -0.54057,-0.9327 -0.68385,-3.1224 -0.23352,-3.5688 0.30093,-0.2983 4.08513,-3.223 8.40936,-6.4994 4.32422,-3.2763 7.80659,-6.0529 7.73859,-6.1702 -0.0947,-0.1634 -5.70025,-3.5997 -6.39291,-3.919 -0.19038,-0.088 -12.25729,12.7925 -13.77604,14.7046 -1.09538,1.3791 -1.18283,1.7146 -0.82376,3.1603 0.22094,0.8896 0.83208,2.573 1.35807,3.741 l 0.95637,2.1234 z"
       inkscape:connector-curvature="0" />
    <text
       sodipodi:linespacing="125%"
       id="text3359"
       y="1015.9341"
       x="68.693497"
       style="font-style:normal;font-variant:normal;font-weight:bold;font-stretch:normal;font-size:31.37228775px;line-height:125%;font-family:Cantarell;-inkscape-font-specification:'Cantarell, Bold';text-align:start;letter-spacing:0px;word-spacing:0px;writing-mode:lr-tb;text-anchor:start;fill:#ffffff;fill-opacity:1;stroke:none;stroke-width:1px;stroke-linecap:butt;stroke-linejoin:miter;stroke-opacity:1;"
       xml:space="preserve"><tspan
         y="1015.9341"
         x="68.693497"
         id="tspan3361"
         sodipodi:role="line">Elephant</tspan><tspan
         style="font-style:normal;font-variant:normal;font-weight:bold;font-stretch:normal;font-size:21.93610764px;line-height:125%;font-family:Cantarell;-inkscape-font-specification:'Cantarell, Bold';text-align:start;writing-mode:lr-tb;text-anchor:start;fill:#ffffff;"
         id="tspan3363"
         y="1046.1036"
         x="68.693497"
         sodipodi:role="line"> Memory</tspan></text>
  </g>
</svg>
